<?xml version="1.0" standalone="no"?><!DOCTYPE svg PUBLIC "-//W3C//DTD SVG 1.1//EN" "http://www.w3.org/Graphics/SVG/1.1/DTD/svg11.dtd"><svg t="1589335960838" class="icon" viewBox="0 0 1265 1024" version="1.1" xmlns="http://www.w3.org/2000/svg" p-id="3638" xmlns:xlink="http://www.w3.org/1999/xlink" width="247.0703125" height="200"><defs><style type="text/css"></style></defs><path d="M1025.724758 311.892298A401.369796 401.369796 0 0 0 298.08016 182.41817a310.737906 310.737906 0 0 0 25.894826 621.475813 51.789651 51.789651 0 0 0 0-103.579302 207.158604 207.158604 0 0 1 0-414.317209h16.31374l5.178965-1.553689 4.40212-1.812638 4.661069-2.589483 3.884224-2.330534a27.707463 27.707463 0 0 0 4.143172-3.625276l3.366327-3.107379a20.456912 20.456912 0 0 0 3.107379-3.884223 22.787446 22.787446 0 0 0 3.107379-4.402121l1.294742-1.812638a298.049442 298.049442 0 0 1 557.515593 110.570905v1.55369a6.214758 6.214758 0 0 0 0 2.071586c0 2.589483 0 5.178965 1.812638 7.768448v1.553689a51.789651 51.789651 0 0 0 3.625276 7.768448 51.789651 51.789651 0 0 0 44.021203 25.894825h8.027396a133.876248 133.876248 0 0 1 21.751654-2.589482 142.42154 142.42154 0 0 1 0 284.843081H971.345624a51.789651 51.789651 0 0 0 0 103.579302h38.842239a245.741894 245.741894 0 0 0 15.536895-492.001685z" fill="#3A3A3A" p-id="3639"></path><path d="M781.795501 803.893983l-87.783458 87.783459V519.050902a38.842238 38.842238 0 0 0-77.684477 0v372.367591L528.803056 803.893983a38.842238 38.842238 0 0 0-54.89703 55.155978l153.815263 153.815264a35.734859 35.734859 0 0 0 12.170568 8.027396 41.949617 41.949617 0 0 0 13.983206 2.589482 38.065394 38.065394 0 0 0 14.501103-2.84843 38.842238 38.842238 0 0 0 13.206361-9.063189l153.556315-153.556316A38.842238 38.842238 0 1 0 781.795501 803.893983z" fill="#3A3A3A" p-id="3640"></path></svg>