<?xml version="1.0" standalone="no"?><!DOCTYPE svg PUBLIC "-//W3C//DTD SVG 1.1//EN" "http://www.w3.org/Graphics/SVG/1.1/DTD/svg11.dtd"><svg t="1589336203018" class="icon" viewBox="0 0 1024 1024" version="1.1" xmlns="http://www.w3.org/2000/svg" p-id="5143" xmlns:xlink="http://www.w3.org/1999/xlink" width="200" height="200"><defs><style type="text/css"></style></defs><path d="M976.324546 111.24565l-63.570191-63.570191a162.311519 162.311519 0 0 0-229.813887 0l-176.729501 176.729501a43.690853 43.690853 0 0 0 0 61.822557 43.690853 43.690853 0 0 0 61.604103 0L744.544571 109.279562A75.366722 75.366722 0 0 1 852.024069 109.279562l63.788646 63.788645a74.929813 74.929813 0 0 1 0 105.950319L634.662075 559.295348a75.366722 75.366722 0 0 1-106.387227 0l-48.933755-49.152209a43.690853 43.690853 0 0 0-61.822557 0 43.690853 43.690853 0 0 0 0 61.822557l49.152209 49.15221a162.093065 162.093065 0 0 0 229.595433 0l280.058368-280.058369a162.311519 162.311519 0 0 0 0-229.813887z" fill="#3A3A3A" p-id="5144"></path><path d="M47.675464 912.75435l63.570191 63.570191a162.311519 162.311519 0 0 0 229.813888 0l176.7295-176.729501a43.690853 43.690853 0 0 0 0-61.822557 43.690853 43.690853 0 0 0-61.604102 0l-176.729501 176.729501a75.366722 75.366722 0 0 1-106.387227 0L109.279567 850.713339a74.929813 74.929813 0 0 1 0-105.950319l280.058368-280.058368a75.366722 75.366722 0 0 1 106.387228 0l48.933755 49.152209a43.690853 43.690853 0 0 0 61.822557 0 43.690853 43.690853 0 0 0 0-61.822557l-49.15221-49.15221a162.093065 162.093065 0 0 0-229.595432 0L47.675464 682.940463a162.311519 162.311519 0 0 0 0 229.813887z" fill="#3A3A3A" p-id="5145"></path></svg>