<?xml version="1.0" standalone="no"?><!DOCTYPE svg PUBLIC "-//W3C//DTD SVG 1.1//EN" "http://www.w3.org/Graphics/SVG/1.1/DTD/svg11.dtd"><svg t="1589336218535" class="icon" viewBox="0 0 1170 1024" version="1.1" xmlns="http://www.w3.org/2000/svg" p-id="5270" width="36.5625" height="32" xmlns:xlink="http://www.w3.org/1999/xlink"><defs><style type="text/css"></style></defs><path d="M585.142857 665.84381a48.761905 48.761905 0 0 1-48.761905-48.761905v-210.16381a48.761905 48.761905 0 1 1 97.52381 0v210.16381a48.761905 48.761905 0 0 1-48.761905 48.761905z" fill="#3A3A3A" p-id="5271"></path><path d="M585.142857 799.939048m-60.952381 0a60.952381 60.952381 0 1 0 121.904762 0 60.952381 60.952381 0 1 0-121.904762 0Z" fill="#3A3A3A" p-id="5272"></path><path d="M1121.52381 1024H48.761905a48.761905 48.761905 0 0 1-42.179048-73.142857l536.380953-926.476191a48.761905 48.761905 0 0 1 84.358095 0l536.380952 926.476191A48.761905 48.761905 0 0 1 1121.52381 1024zM133.36381 926.47619h903.558095L585.142857 146.285714z" fill="#3A3A3A" p-id="5273"></path></svg>